<mxfile host="app.diagrams.net" agent="Mozilla/5.0 (Windows NT 10.0; Win64; x64) AppleWebKit/537.36 (KHTML, like Gecko) Chrome/138.0.0.0 Safari/537.36" version="28.2.3">
  <diagram id="ELFJMQqGmrggB3oMLo4y" name="Page-1">
    <mxGraphModel dx="1213" dy="691" grid="1" gridSize="10" guides="1" tooltips="1" connect="1" arrows="1" fold="1" page="1" pageScale="1" pageWidth="827" pageHeight="1169" math="0" shadow="1">
      <root>
        <mxCell id="0" />
        <mxCell id="1" parent="0" />
        <object label="" id="KYXPamdo8oLt4JVjnBWd-1">
          <mxCell style="verticalLabelPosition=bottom;html=1;verticalAlign=top;align=center;strokeColor=none;fillColor=#00BEF2;shape=mxgraph.azure.storage_blob;gradientColor=default;shadow=1;" vertex="1" parent="1">
            <mxGeometry x="20" y="110" width="50" height="45" as="geometry" />
          </mxCell>
        </object>
        <mxCell id="KYXPamdo8oLt4JVjnBWd-16" style="edgeStyle=entityRelationEdgeStyle;rounded=0;orthogonalLoop=1;jettySize=auto;html=1;" edge="1" parent="1" source="KYXPamdo8oLt4JVjnBWd-2" target="KYXPamdo8oLt4JVjnBWd-12">
          <mxGeometry relative="1" as="geometry" />
        </mxCell>
        <mxCell id="KYXPamdo8oLt4JVjnBWd-2" value="" style="image;aspect=fixed;html=1;points=[];align=center;fontSize=12;image=img/lib/azure2/general/Blob_Block.svg;" vertex="1" parent="1">
          <mxGeometry x="150" y="106.5" width="65" height="52" as="geometry" />
        </mxCell>
        <mxCell id="KYXPamdo8oLt4JVjnBWd-3" style="edgeStyle=orthogonalEdgeStyle;rounded=0;orthogonalLoop=1;jettySize=auto;html=1;entryX=0.046;entryY=0.506;entryDx=0;entryDy=0;entryPerimeter=0;" edge="1" parent="1" source="KYXPamdo8oLt4JVjnBWd-1" target="KYXPamdo8oLt4JVjnBWd-2">
          <mxGeometry relative="1" as="geometry" />
        </mxCell>
        <mxCell id="KYXPamdo8oLt4JVjnBWd-4" value="" style="image;sketch=0;aspect=fixed;html=1;points=[];align=center;fontSize=12;image=img/lib/mscae/Databricks.svg;" vertex="1" parent="1">
          <mxGeometry x="280" y="111" width="50" height="48" as="geometry" />
        </mxCell>
        <mxCell id="KYXPamdo8oLt4JVjnBWd-5" style="edgeStyle=orthogonalEdgeStyle;rounded=0;orthogonalLoop=1;jettySize=auto;html=1;entryX=-0.073;entryY=0.493;entryDx=0;entryDy=0;entryPerimeter=0;" edge="1" parent="1" source="KYXPamdo8oLt4JVjnBWd-2" target="KYXPamdo8oLt4JVjnBWd-4">
          <mxGeometry relative="1" as="geometry" />
        </mxCell>
        <mxCell id="KYXPamdo8oLt4JVjnBWd-14" style="edgeStyle=orthogonalEdgeStyle;rounded=0;orthogonalLoop=1;jettySize=auto;html=1;" edge="1" parent="1" source="KYXPamdo8oLt4JVjnBWd-6" target="KYXPamdo8oLt4JVjnBWd-8">
          <mxGeometry relative="1" as="geometry" />
        </mxCell>
        <mxCell id="KYXPamdo8oLt4JVjnBWd-6" value="" style="image;aspect=fixed;html=1;points=[];align=center;fontSize=12;image=img/lib/azure2/general/Blob_Block.svg;" vertex="1" parent="1">
          <mxGeometry x="440" y="111" width="65" height="52" as="geometry" />
        </mxCell>
        <mxCell id="KYXPamdo8oLt4JVjnBWd-7" style="edgeStyle=orthogonalEdgeStyle;rounded=0;orthogonalLoop=1;jettySize=auto;html=1;entryX=-0.036;entryY=0.449;entryDx=0;entryDy=0;entryPerimeter=0;" edge="1" parent="1" source="KYXPamdo8oLt4JVjnBWd-4" target="KYXPamdo8oLt4JVjnBWd-6">
          <mxGeometry relative="1" as="geometry" />
        </mxCell>
        <mxCell id="KYXPamdo8oLt4JVjnBWd-19" style="edgeStyle=orthogonalEdgeStyle;curved=1;rounded=0;orthogonalLoop=1;jettySize=auto;html=1;" edge="1" parent="1" source="KYXPamdo8oLt4JVjnBWd-8" target="KYXPamdo8oLt4JVjnBWd-18">
          <mxGeometry relative="1" as="geometry" />
        </mxCell>
        <mxCell id="KYXPamdo8oLt4JVjnBWd-8" value="" style="image;aspect=fixed;html=1;points=[];align=center;fontSize=12;image=img/lib/azure2/analytics/Azure_Synapse_Analytics.svg;" vertex="1" parent="1">
          <mxGeometry x="650" y="101.5" width="60" height="69" as="geometry" />
        </mxCell>
        <mxCell id="KYXPamdo8oLt4JVjnBWd-12" value="" style="image;aspect=fixed;html=1;points=[];align=center;fontSize=12;image=img/lib/azure2/databases/Data_Factory.svg;" vertex="1" parent="1">
          <mxGeometry x="280" y="20" width="68" height="68" as="geometry" />
        </mxCell>
        <mxCell id="KYXPamdo8oLt4JVjnBWd-17" style="edgeStyle=orthogonalEdgeStyle;curved=1;rounded=0;orthogonalLoop=1;jettySize=auto;html=1;entryX=0.067;entryY=0.276;entryDx=0;entryDy=0;entryPerimeter=0;" edge="1" parent="1" source="KYXPamdo8oLt4JVjnBWd-12" target="KYXPamdo8oLt4JVjnBWd-6">
          <mxGeometry relative="1" as="geometry" />
        </mxCell>
        <mxCell id="KYXPamdo8oLt4JVjnBWd-18" value="" style="shape=image;verticalLabelPosition=bottom;verticalAlign=top;imageAspect=0;aspect=fixed;image=data:image/svg+xml,PHN2ZyB4bWxuczp4bGluaz0iaHR0cDovL3d3dy53My5vcmcvMTk5OS94bGluayIgeG1sbnM9Imh0dHA6Ly93d3cudzMub3JnLzIwMDAvc3ZnIiB2aWV3Qm94PSIwIDAgNDggNDgiIGhlaWdodD0iNDgiIHdpZHRoPSI0OCIgZGF0YS1uYW1lPSJMYXllciAxIiBpZD0idXVpZC05MmY1YTIzNi00YmY2LTQ1ZWUtODAwMC1iMDdhOTg3MzlmMjUiPiYjeGE7ICA8ZGVmcz4mI3hhOyAgICA8bGluZWFyR3JhZGllbnQgZ3JhZGllbnRVbml0cz0idXNlclNwYWNlT25Vc2UiIGdyYWRpZW50VHJhbnNmb3JtPSJtYXRyaXgoMSwgMCwgMCwgMSwgMCwgMCkiIHkyPSIzLjU5OSIgeDI9IjQzLjYyNSIgeTE9IjQ3LjczMyIgeDE9IjIyLjgwMyIgaWQ9InV1aWQtZmIxMzdkZTYtOGRmNC00MjEwLWIxNTUtOWE3YzMyN2E3N2I4Ij4mI3hhOyAgICAgIDxzdG9wIHN0b3AtY29sb3I9IiNjODdlMGUiIG9mZnNldD0iMCIvPiYjeGE7ICAgICAgPHN0b3Agc3RvcC1jb2xvcj0iI2U2YWQxMCIgb2Zmc2V0PSIxIi8+JiN4YTsgICAgPC9saW5lYXJHcmFkaWVudD4mI3hhOyAgICA8bGluZWFyR3JhZGllbnQgZ3JhZGllbnRVbml0cz0idXNlclNwYWNlT25Vc2UiIGdyYWRpZW50VHJhbnNmb3JtPSJtYXRyaXgoMSwgMCwgMCwgMSwgMCwgMCkiIHkyPSIxMy44MzEiIHgyPSIzMi43MjgiIHkxPSI0Ny42MzciIHgxPSIxNS4yOTYiIGlkPSJ1dWlkLWEzMWM2OTVmLTU4ZTctNDA2MS1hNGRiLTIxNzM1Njk2MzAzZCI+JiN4YTsgICAgICA8c3RvcCBzdG9wLWNvbG9yPSIjZTZhZDEwIiBvZmZzZXQ9IjAiLz4mI3hhOyAgICAgIDxzdG9wIHN0b3AtY29sb3I9IiNmNmQ3NTEiIG9mZnNldD0iMSIvPiYjeGE7ICAgIDwvbGluZWFyR3JhZGllbnQ+JiN4YTsgICAgPGxpbmVhckdyYWRpZW50IGdyYWRpZW50VW5pdHM9InVzZXJTcGFjZU9uVXNlIiBncmFkaWVudFRyYW5zZm9ybT0ibWF0cml4KDEsIDAsIDAsIDEsIDAsIDApIiB5Mj0iMjYuMzc5IiB4Mj0iMTguMzk2IiB5MT0iNDguNjAxIiB4MT0iOS4wMTkiIGlkPSJ1dWlkLTM3OWNmMDI1LTc3ZTItNDA5OC1hNTQ3LTZmNGQyMTI3ODAyMCI+JiN4YTsgICAgICA8c3RvcCBzdG9wLWNvbG9yPSIjZjZkNzUxIiBvZmZzZXQ9IjAiLz4mI3hhOyAgICAgIDxzdG9wIHN0b3AtY29sb3I9IiNmOWU1ODkiIG9mZnNldD0iMSIvPiYjeGE7ICAgIDwvbGluZWFyR3JhZGllbnQ+JiN4YTsgIDwvZGVmcz4mI3hhOyAgPHRleHQgZm9udC13ZWlnaHQ9IjcwMCIgZm9udC1zaXplPSI0OCIgZm9udC1mYW1pbHk9IlNlZ29lVUktU2VtaWJvbGQsICdTZWdvZSBVSSciIGZpbGw9IiNiNGI0YjQiIHRyYW5zZm9ybT0idHJhbnNsYXRlKDAgLTE4LjM0MSkiPjx0c3BhbiB5PSIwIiB4PSIwIj40OHg8L3RzcGFuPjwvdGV4dD4mI3hhOyAgPGc+JiN4YTsgICAgPHBhdGggZmlsbD0idXJsKCN1dWlkLWZiMTM3ZGU2LThkZjQtNDIxMC1iMTU1LTlhN2MzMjdhNzdiOCkiIGQ9Ik00Miw0Ni4wMDNWMS45OTdjLS4wMDItMS4xMDMtLjg5Ni0xLjk5Ny0yLTEuOTk3aC0xMmMtMS4xMDUsMC0yLC44OTUtMiwydjMuMTM2aDBWNDhoMTQuMDAxYzEuMTAzLDAsMS45OTctLjg5NCwxLjk5OS0xLjk5N1oiLz4mI3hhOyAgICA8cGF0aCBmaWxsPSJ1cmwoI3V1aWQtYTMxYzY5NWYtNThlNy00MDYxLWE0ZGItMjE3MzU2OTYzMDNkKSIgZD0iTTMwLDEyaC0xMi4wMDFjLTEuMTAzLDAtMS45OTcsLjg5NC0xLjk5OSwxLjk5OFY0OGgxNlYxNGMwLTEuMTA1LS44OTUtMi0yLTJaIi8+JiN4YTsgICAgPHBhdGggZmlsbD0idXJsKCN1dWlkLTM3OWNmMDI1LTc3ZTItNDA5OC1hNTQ3LTZmNGQyMTI3ODAyMCkiIGQ9Ik0yMCwyNEg4Yy0xLjEwNSwwLTIsLjg5NS0yLDJ2MjBjMCwxLjEwNCwuODk1LDIsMiwyaDE0VjI2YzAtMS4xMDUtLjg5NS0yLTItMloiLz4mI3hhOyAgPC9nPiYjeGE7PC9zdmc+" vertex="1" parent="1">
          <mxGeometry x="770" y="111" width="48" height="48" as="geometry" />
        </mxCell>
        <mxCell id="KYXPamdo8oLt4JVjnBWd-22" style="edgeStyle=orthogonalEdgeStyle;curved=1;rounded=0;orthogonalLoop=1;jettySize=auto;html=1;exitX=1;exitY=0.5;exitDx=0;exitDy=0;exitPerimeter=0;entryX=0;entryY=0.5;entryDx=0;entryDy=0;" edge="1" parent="1" source="KYXPamdo8oLt4JVjnBWd-20" target="KYXPamdo8oLt4JVjnBWd-21">
          <mxGeometry relative="1" as="geometry" />
        </mxCell>
        <object label="" id="KYXPamdo8oLt4JVjnBWd-20">
          <mxCell style="verticalLabelPosition=bottom;html=1;verticalAlign=top;align=center;strokeColor=none;fillColor=#00BEF2;shape=mxgraph.azure.storage_blob;gradientColor=default;shadow=1;" vertex="1" parent="1">
            <mxGeometry x="30" y="280" width="50" height="45" as="geometry" />
          </mxCell>
        </object>
        <mxCell id="KYXPamdo8oLt4JVjnBWd-26" style="edgeStyle=orthogonalEdgeStyle;curved=1;rounded=0;orthogonalLoop=1;jettySize=auto;html=1;entryX=0;entryY=0.5;entryDx=0;entryDy=0;" edge="1" parent="1" source="KYXPamdo8oLt4JVjnBWd-21" target="KYXPamdo8oLt4JVjnBWd-23">
          <mxGeometry relative="1" as="geometry" />
        </mxCell>
        <mxCell id="KYXPamdo8oLt4JVjnBWd-21" value="" style="shape=image;verticalLabelPosition=bottom;verticalAlign=top;imageAspect=0;aspect=fixed;image=data:image/svg+xml,PHN2ZyB4bWxucz0iaHR0cDovL3d3dy53My5vcmcvMjAwMC9zdmciIHZpZXdCb3g9IjAgMCA0OCA0OSIgZmlsbD0iY3VycmVudENvbG9yIiBoZWlnaHQ9IjQ5IiB3aWR0aD0iNDgiPiYjeGE7ICA8bWFzayBzdHlsZT0ibWFzay10eXBlOmx1bWluYW5jZSIgbWFza1VuaXRzPSJ1c2VyU3BhY2VPblVzZSIgeT0iNCIgeD0iNCIgaGVpZ2h0PSI0MSIgd2lkdGg9IjQwIiBpZD0iYSI+JiN4YTsgICAgPHBhdGggZD0iTTQzLjQ4MSA0LjVINC41MnYzOS45ODVoMzguOTZWNC41WiIgZmlsbD0iI2ZmZiIvPiYjeGE7ICA8L21hc2s+JiN4YTsgIDxnIG1hc2s9InVybCgjYSkiPiYjeGE7ICAgIDxwYXRoIGQ9Ik0yMi4yMSAzMy4wNDFjNS40ODYtMy4xNjggNy4yOTMtMTAuMzEyIDQuMDMzLTE1Ljk1Ny0zLjI2LTUuNjQ2LTEwLjM1LTcuNjU0LTE1LjgzNi00LjQ4NkM0LjkyIDE1Ljc2NiAzLjExNCAyMi45MSA2LjM3MyAyOC41NTZjMy4yNiA1LjY0NSAxMC4zNSA3LjY1MyAxNS44MzYgNC40ODVaIiBmaWxsPSJ1cmwoI2IpIi8+JiN4YTsgICAgPHBhdGggZD0iTTI5LjM3MSAxNy4yMTVjMi44NDktMi44NSAyLjc4LTcuNTM2LS4xNTItMTAuNDY4QzI2LjI4NyAzLjgxNiAyMS42IDMuNzUgMTguNzUxIDYuNnMtMi43OCA3LjUzNy4xNTIgMTAuNDY4YzIuOTMzIDIuOTMyIDcuNjIgMi45OTggMTAuNDY4LjE0OFoiIGZpbGw9InVybCgjYykiLz4mI3hhOyAgICA8cGF0aCBkPSJNMjYuMjk5IDQzLjcyYzkuNDg3IDAgMTcuMTc4LTcuNjkxIDE3LjE3OC0xNy4xNzlTMzUuNzg3IDkuMzYyIDI2LjMgOS4zNjIgOS4xMiAxNy4wNTMgOS4xMiAyNi41NDEgMTYuODExIDQzLjcyIDI2LjMgNDMuNzJaIiBmaWxsPSJ1cmwoI2QpIi8+JiN4YTsgICAgPHBhdGggY2xpcC1ydWxlPSJldmVub2RkIiBkPSJNMTkuNTY5IDUuODg3Yy0xMC4wODUgNi4yMy0xMy42MSAxOS4zNS03LjgxNSAyOS44NDUuMzkuNzEuODE1IDEuMzkyIDEuMjc0IDIuMDM5bC40NS4wNjkgOS45NjYgMy4zMjcgOS40NjgtNi4zNDNjLTEuNTg1LjA1LTguMTgtMy42OTMtMTIuNDktMTEuODcyLTUuNC0xMC4yNDgtMy4xNzMtMTQuOTgyLS44NDMtMTcuMDY1aC0uMDFaIiBmaWxsLXJ1bGU9ImV2ZW5vZGQiIGZpbGw9InVybCgjZSkiLz4mI3hhOyAgICA8cGF0aCBjbGlwLXJ1bGU9ImV2ZW5vZGQiIGQ9Ik0xOS41NjkgNS44ODdjLTEwLjA4NSA2LjIzLTEzLjYxIDE5LjM1LTcuODE1IDI5Ljg0NS4zOS43MS44MTUgMS4zOTIgMS4yNzQgMi4wMzlsLjQ1LjA2OSA5Ljk2NiAzLjMyNyA5LjQ2OC02LjM0M2MtMS41ODUuMDUtOC4xOC0zLjY5My0xMi40OS0xMS44NzItNS40LTEwLjI0OC0zLjE3My0xNC45ODItLjg0My0xNy4wNjVoLS4wMVoiIGZpbGwtcnVsZT0iZXZlbm9kZCIgZmlsbC1vcGFjaXR5PSIuMiIgZmlsbD0idXJsKCNmKSIvPiYjeGE7ICAgIDxwYXRoIGNsaXAtcnVsZT0iZXZlbm9kZCIgZD0iTTM5LjM2NCAzNy42OTdhMTcuMjQgMTcuMjQgMCAwIDAgMy42MzgtNy4xMDljLTEuNzA4LTQuODc3LTguNTgtNi4yNDktMTIuMzQtMi40MzMtMi44ODkgMi45MjctNS44OSA1LjM4Ni04LjE0NiA1LjgyNUM5LjQ2OSAzNi41NDIgMy45MTkgMjUuNzg3IDQuODczIDIwLjg0YTE5LjgxIDE5LjgxIDAgMCAwIC4wNSA3LjczYzIuMTk2IDEwLjc2IDEyLjY5NiAxNy43IDIzLjQ1NyAxNS41MDVhMTkuODE0IDE5LjgxNCAwIDAgMCA4LjcyNy00LjE4MXMuMDQtLjAzLjA1NC0uMDQ1YTE5Ljc2IDE5Ljc2IDAgMCAwIDIuMjAyLTIuMTU3di4wMDVaIiBmaWxsLXJ1bGU9ImV2ZW5vZGQiIGZpbGw9InVybCgjZykiLz4mI3hhOyAgPC9nPiYjeGE7ICA8ZGVmcz4mI3hhOyAgICA8cmFkaWFsR3JhZGllbnQgZ3JhZGllbnRVbml0cz0idXNlclNwYWNlT25Vc2UiIGdyYWRpZW50VHJhbnNmb3JtPSJyb3RhdGUoMTM0LjgzIDE4LjExMyA4LjI5NCkgc2NhbGUoMjUuODkyNSAzMy40MDMzKSIgcj0iMSIgY3k9IjAiIGN4PSIwIiBpZD0iZCI+JiN4YTsgICAgICA8c3RvcCBzdG9wLWNvbG9yPSIjMDI4RkRDIiBvZmZzZXQ9Ii4zOSIvPiYjeGE7ICAgICAgPHN0b3Agc3RvcC1jb2xvcj0iIzAwNzhENCIgb2Zmc2V0PSIuNTkiLz4mI3hhOyAgICAgIDxzdG9wIHN0b3AtY29sb3I9IiMxQTUwOEIiIG9mZnNldD0iMSIvPiYjeGE7ICAgIDwvcmFkaWFsR3JhZGllbnQ+JiN4YTsgICAgPHJhZGlhbEdyYWRpZW50IGdyYWRpZW50VW5pdHM9InVzZXJTcGFjZU9uVXNlIiBncmFkaWVudFRyYW5zZm9ybT0icm90YXRlKDEzOS40NCAxMi41NCAxNC4xNDUpIHNjYWxlKDIzLjMwMDYgMjguNzQ5NSkiIHI9IjEiIGN5PSIwIiBjeD0iMCIgaWQ9ImUiPiYjeGE7ICAgICAgPHN0b3Agc3RvcC1jb2xvcj0iIzQwRDlGQSIgb2Zmc2V0PSIuNDYiLz4mI3hhOyAgICAgIDxzdG9wIHN0b3AtY29sb3I9IiMwMDk1RTYiIG9mZnNldD0iLjkiLz4mI3hhOyAgICA8L3JhZGlhbEdyYWRpZW50PiYjeGE7ICAgIDxyYWRpYWxHcmFkaWVudCBncmFkaWVudFVuaXRzPSJ1c2VyU3BhY2VPblVzZSIgZ3JhZGllbnRUcmFuc2Zvcm09Im1hdHJpeCgtMi42NTMwOCAyNC41ODE4NCAtMTcuNDU4MzEgLTEuODg0MjUgMTguNDA4IDExLjc2NCkiIHI9IjEiIGN5PSIwIiBjeD0iMCIgaWQ9ImYiPiYjeGE7ICAgICAgPHN0b3Agc3RvcC1vcGFjaXR5PSIwIiBvZmZzZXQ9Ii43NyIvPiYjeGE7ICAgICAgPHN0b3Agb2Zmc2V0PSIxIi8+JiN4YTsgICAgPC9yYWRpYWxHcmFkaWVudD4mI3hhOyAgICA8cmFkaWFsR3JhZGllbnQgZ3JhZGllbnRVbml0cz0idXNlclNwYWNlT25Vc2UiIGdyYWRpZW50VHJhbnNmb3JtPSJyb3RhdGUoODUuOTcgLTEuMDExIDMxLjIwOSkgc2NhbGUoMzguNDc0OSA3MC4xNTc4KSIgcj0iMSIgY3k9IjAiIGN4PSIwIiBpZD0iZyI+JiN4YTsgICAgICA8c3RvcCBzdG9wLWNvbG9yPSIjQkRGNUZGIiBvZmZzZXQ9Ii4xIi8+JiN4YTsgICAgICA8c3RvcCBzdG9wLWNvbG9yPSIjNDBEOUZBIiBvZmZzZXQ9Ii40NyIvPiYjeGE7ICAgIDwvcmFkaWFsR3JhZGllbnQ+JiN4YTsgICAgPGxpbmVhckdyYWRpZW50IGdyYWRpZW50VW5pdHM9InVzZXJTcGFjZU9uVXNlIiB5Mj0iMjUuNTU3IiB5MT0iMTcuNDczIiB4Mj0iNC40NDgiIHgxPSIzOS41MSIgaWQ9ImIiPiYjeGE7ICAgICAgPHN0b3Agc3RvcC1jb2xvcj0iIzAyOEZEQyIgb2Zmc2V0PSIuMiIvPiYjeGE7ICAgICAgPHN0b3Agc3RvcC1jb2xvcj0iIzAwNzhENCIgb2Zmc2V0PSIuNTEiLz4mI3hhOyAgICAgIDxzdG9wIHN0b3AtY29sb3I9IiMwQjMxNUIiIG9mZnNldD0iMSIvPiYjeGE7ICAgIDwvbGluZWFyR3JhZGllbnQ+JiN4YTsgICAgPGxpbmVhckdyYWRpZW50IGdyYWRpZW50VW5pdHM9InVzZXJTcGFjZU9uVXNlIiB5Mj0iNy4xMTIiIHkxPSIyOC4zNDEiIHgyPSIxOC44MzEiIHgxPSI0MS45OTUiIGlkPSJjIj4mI3hhOyAgICAgIDxzdG9wIHN0b3AtY29sb3I9IiMwMjhGREMiIG9mZnNldD0iLjA0Ii8+JiN4YTsgICAgICA8c3RvcCBzdG9wLWNvbG9yPSIjMDA3OEQ0IiBvZmZzZXQ9Ii40NiIvPiYjeGE7ICAgICAgPHN0b3Agc3RvcC1jb2xvcj0iIzBCMzE1QiIgb2Zmc2V0PSIxIi8+JiN4YTsgICAgPC9saW5lYXJHcmFkaWVudD4mI3hhOyAgPC9kZWZzPiYjeGE7PC9zdmc+" vertex="1" parent="1">
          <mxGeometry x="167" y="276" width="48" height="49" as="geometry" />
        </mxCell>
        <mxCell id="KYXPamdo8oLt4JVjnBWd-27" style="edgeStyle=orthogonalEdgeStyle;curved=1;rounded=0;orthogonalLoop=1;jettySize=auto;html=1;" edge="1" parent="1" source="KYXPamdo8oLt4JVjnBWd-23" target="KYXPamdo8oLt4JVjnBWd-25">
          <mxGeometry relative="1" as="geometry" />
        </mxCell>
        <mxCell id="KYXPamdo8oLt4JVjnBWd-23" value="" style="shape=image;verticalLabelPosition=bottom;verticalAlign=top;imageAspect=0;aspect=fixed;image=data:image/svg+xml,PHN2ZyB4bWxucz0iaHR0cDovL3d3dy53My5vcmcvMjAwMC9zdmciIGZpbGw9Im5vbmUiIHZpZXdCb3g9IjAgMCA0OCA0OCIgaGVpZ2h0PSI0OCIgd2lkdGg9IjQ4Ij4mI3hhOzxwYXRoIGZpbGw9InVybCgjcGFpbnQwX2xpbmVhcl8zNTc0OV8xMTI3OTgpIiBkPSJNMTUuNTU3NCA0NEMxNC43MjkgNDQgMTQuMDkwMyA0My4yNiAxNC4yMSA0Mi40NDAxQzE1Ljk4NjUgMzAuNDEwMSAyNi4yOTYxIDIxLjUwMDEgMzguNDMyMSAyMS41MDAxSDQwLjg4NzJDNDIuNTYzOSAyMS41MDAxIDQzLjc5MTUgMjAuNTAwMSA0My43OTE1IDE4LjgyMDJMNDMuOTMxMiAxOC4xNjAyVjI5LjgzMDFDNDMuOTMxMiAzMS42NzAxIDQyLjQ0NDEgMzMuMTYwMSA0MC42MDc4IDMzLjE2MDFIMzkuMjMwNUMzNC4xMjA2IDMzLjE2MDEgMjkuNjA5NSAzNi41MDAxIDI4LjEwMjUgNDEuNDAwMUwyNy42NjM0IDQyLjgyQzI3LjQ0MzggNDMuNTIgMjYuODA1MSA0NCAyNi4wNzY1IDQ0SDE1LjU3NzNIMTUuNTU3NFoiLz4mI3hhOzxwYXRoIGZpbGw9InVybCgjcGFpbnQxX2xpbmVhcl8zNTc0OV8xMTI3OTgpIiBkPSJNMTUuNTU3NCA0NEMxNC43MjkgNDQgMTQuMDkwMyA0My4yNiAxNC4yMSA0Mi40NDAxQzE1Ljk4NjUgMzAuNDEwMSAyNi4yOTYxIDIxLjUwMDEgMzguNDMyMSAyMS41MDAxSDQwLjg4NzJDNDIuNTYzOSAyMS41MDAxIDQzLjc5MTUgMjAuNTAwMSA0My43OTE1IDE4LjgyMDJMNDMuOTMxMiAxOC4xNjAyVjI5LjgzMDFDNDMuOTMxMiAzMS42NzAxIDQyLjQ0NDEgMzMuMTYwMSA0MC42MDc4IDMzLjE2MDFIMzkuMjMwNUMzNC4xMjA2IDMzLjE2MDEgMjkuNjA5NSAzNi41MDAxIDI4LjEwMjUgNDEuNDAwMUwyNy42NjM0IDQyLjgyQzI3LjQ0MzggNDMuNTIgMjYuODA1MSA0NCAyNi4wNzY1IDQ0SDE1LjU3NzNIMTUuNTU3NFoiLz4mI3hhOzxwYXRoIGZpbGw9InVybCgjcGFpbnQyX2xpbmVhcl8zNTc0OV8xMTI3OTgpIiBkPSJNNS42NjY3IDMwLjY2OTlDNC43NDg1MiAzMC42Njk5IDQgMjkuOTE5OSA0IDI4Ljk5OTlWMTguOTk5OUM0IDE4LjA4IDQuNzQ4NTIgMTcuMzMgNS42NjY3IDE3LjMzSDM1LjYwNzRDMzYuNTI1NiAxNy4zMyAzNy4yNzQxIDE4LjA4IDM3LjI3NDEgMTguOTk5OVYyOC45OTk5QzM3LjI3NDEgMjkuOTE5OSAzNi41MjU2IDMwLjY2OTkgMzUuNjA3NCAzMC42Njk5SDUuNjY2N1oiLz4mI3hhOzxwYXRoIGZpbGw9InVybCgjcGFpbnQzX3JhZGlhbF8zNTc0OV8xMTI3OTgpIiBkPSJNNS42NjY3IDMwLjY2OTlDNC43NDg1MiAzMC42Njk5IDQgMjkuOTE5OSA0IDI4Ljk5OTlWMTguOTk5OUM0IDE4LjA4IDQuNzQ4NTIgMTcuMzMgNS42NjY3IDE3LjMzSDM1LjYwNzRDMzYuNTI1NiAxNy4zMyAzNy4yNzQxIDE4LjA4IDM3LjI3NDEgMTguOTk5OVYyOC45OTk5QzM3LjI3NDEgMjkuOTE5OSAzNi41MjU2IDMwLjY2OTkgMzUuNjA3NCAzMC42Njk5SDUuNjY2N1oiLz4mI3hhOzxwYXRoIGZpbGw9InVybCgjcGFpbnQ0X2xpbmVhcl8zNTc0OV8xMTI3OTgpIiBkPSJNMTUuNTc3MSA0QzE0LjczODggNCAxNC4wOTAxIDQuNzUgMTQuMjA5OCA1LjU3OTk5QzE1Ljk4NjMgMTcuODI5OSAyNi40NjU2IDI2LjkwOTkgMzguODIxMSAyNi45MDk5SDQwLjg4N0M0Mi41NjM3IDI2LjkwOTkgNDMuOTIxIDI4LjI2OTkgNDMuOTIxIDI5Ljk0OTlWMTguMTY5OUM0My45MjEgMTYuMzI5OSA0Mi40MzQgMTQuODQgNDAuNTk3NiAxNC44NEgzOS4yMjAzQzM0LjExMDQgMTQuODQgMjkuNTk5NCAxMS41IDI4LjA5MjQgNi41OTk5OUwyNy42NTMyIDUuMTc5OTlDMjcuNDMzNyA0LjQ4IDI2Ljc5NDkgNCAyNi4wNjY0IDRIMTUuNTg3MUgxNS41NzcxWiIvPiYjeGE7PHBhdGggZmlsbD0idXJsKCNwYWludDVfbGluZWFyXzM1NzQ5XzExMjc5OCkiIGQ9Ik00MC41OTY5IDE0LjgzSDM5LjIxOTZDMzYuODU0MyAxNC44MyAzNC42MTg3IDE0LjExIDMyLjc1MjQgMTIuODVWMjYuMTVDMzQuNjk4NiAyNi42NCAzNi43MzQ2IDI2LjkxIDM4LjgzMDQgMjYuOTFINDAuODk2M0M0Mi41NzMgMjYuOTEgNDMuOTMwMyAyOC4yNyA0My45MzAzIDI5Ljk1VjE4LjE3QzQzLjkzMDMgMTYuMzMgNDIuNDQzMyAxNC44NCA0MC42MDY5IDE0Ljg0TDQwLjU5NjkgMTQuODNaIiBvcGFjaXR5PSIwLjQiLz4mI3hhOzxnIG9wYWNpdHk9IjAuNyI+JiN4YTs8cGF0aCBmaWxsPSJ1cmwoI3BhaW50Nl9saW5lYXJfMzU3NDlfMTEyNzk4KSIgZD0iTTE1LjY1NTkgNC4wMDAwNkMxNC44MTc1IDQuMDAwMDYgMTQuMTY4OCA0Ljc1MDA2IDE0LjI4ODYgNS41ODAwNUMxNi4wNjUxIDE3LjgzIDI2LjU0NDMgMjYuOTEgMzguODk5OCAyNi45MUg0MC45NjU4QzQyLjY0MjQgMjYuOTEgNDMuOTk5OCAyOC4yNyA0My45OTk4IDI5Ljk0OTlWMTguMTdDNDMuOTk5OCAxNi4zMyA0Mi41MTI3IDE0Ljg0IDQwLjY3NjMgMTQuODRIMzkuMjk5MUMzNC4xODkyIDE0Ljg0IDI5LjY3ODEgMTEuNSAyOC4xNzExIDYuNjAwMDVMMjcuNzMyIDUuMTgwMDZDMjcuNTEyNCA0LjQ4MDA2IDI2Ljg3MzcgNC4wMDAwNiAyNi4xNDUxIDQuMDAwMDZIMTUuNjY1OEgxNS42NTU5WiIvPiYjeGE7PC9nPiYjeGE7PGRlZnM+JiN4YTs8bGluZWFyR3JhZGllbnQgZ3JhZGllbnRVbml0cz0idXNlclNwYWNlT25Vc2UiIHkyPSIxOC40MDQ3IiB4Mj0iNDQuMTU1MiIgeTE9IjQ1Ljk2IiB4MT0iMTYuNTQ1NCIgaWQ9InBhaW50MF9saW5lYXJfMzU3NDlfMTEyNzk4Ij4mI3hhOzxzdG9wIHN0b3AtY29sb3I9IiMwRDcwMTIiIG9mZnNldD0iMC4yNiIvPiYjeGE7PHN0b3Agc3RvcC1jb2xvcj0iIzA4NTcxNCIgb2Zmc2V0PSIxIi8+JiN4YTs8L2xpbmVhckdyYWRpZW50PiYjeGE7PGxpbmVhckdyYWRpZW50IGdyYWRpZW50VW5pdHM9InVzZXJTcGFjZU9uVXNlIiB5Mj0iMzcuNzI2MyIgeDI9IjUuMDI4NDgiIHkxPSIyNi4xMTAxIiB4MT0iNTcuNDE0NSIgaWQ9InBhaW50MV9saW5lYXJfMzU3NDlfMTEyNzk4Ij4mI3hhOzxzdG9wIHN0b3AtY29sb3I9IiMxMTRBOEEiIG9mZnNldD0iMC4wNCIvPiYjeGE7PHN0b3Agc3RvcC1vcGFjaXR5PSIwIiBzdG9wLWNvbG9yPSIjMEM1OUEzIiBvZmZzZXQ9IjEiLz4mI3hhOzwvbGluZWFyR3JhZGllbnQ+JiN4YTs8bGluZWFyR3JhZGllbnQgZ3JhZGllbnRVbml0cz0idXNlclNwYWNlT25Vc2UiIHkyPSIyMy45OTk5IiB4Mj0iMzYuMjQ2MiIgeTE9IjIzLjk5OTkiIHgxPSItMTYuODU4NyIgaWQ9InBhaW50Ml9saW5lYXJfMzU3NDlfMTEyNzk4Ij4mI3hhOzxzdG9wIHN0b3AtY29sb3I9IiMxMDdDMTAiLz4mI3hhOzxzdG9wIHN0b3AtY29sb3I9IiM1NkI1MEUiIG9mZnNldD0iMC45NiIvPiYjeGE7PC9saW5lYXJHcmFkaWVudD4mI3hhOzxyYWRpYWxHcmFkaWVudCBncmFkaWVudFRyYW5zZm9ybT0idHJhbnNsYXRlKDMwLjQ3MjggMjEuODMwMikgcm90YXRlKC01Ni4zMjIyKSBzY2FsZSgxMC4xNjM4IDI1Ljg5OCkiIGdyYWRpZW50VW5pdHM9InVzZXJTcGFjZU9uVXNlIiByPSIxIiBjeT0iMCIgY3g9IjAiIGlkPSJwYWludDNfcmFkaWFsXzM1NzQ5XzExMjc5OCI+JiN4YTs8c3RvcCBzdG9wLW9wYWNpdHk9IjAuMyIvPiYjeGE7PHN0b3Agc3RvcC1vcGFjaXR5PSIwIiBvZmZzZXQ9IjEiLz4mI3hhOzwvcmFkaWFsR3JhZGllbnQ+JiN4YTs8bGluZWFyR3JhZGllbnQgZ3JhZGllbnRVbml0cz0idXNlclNwYWNlT25Vc2UiIHkyPSIwLjc5Nzk2NiIgeDI9IjE5Ljk2OTkiIHkxPSIzNy42NTk5IiB4MT0iNDUuODI3MiIgaWQ9InBhaW50NF9saW5lYXJfMzU3NDlfMTEyNzk4Ij4mI3hhOzxzdG9wIHN0b3AtY29sb3I9IiMzMzk4MEYiIG9mZnNldD0iMC4wNCIvPiYjeGE7PHN0b3Agc3RvcC1jb2xvcj0iI0JBRTg4NCIgb2Zmc2V0PSIxIi8+JiN4YTs8L2xpbmVhckdyYWRpZW50PiYjeGE7PGxpbmVhckdyYWRpZW50IGdyYWRpZW50VW5pdHM9InVzZXJTcGFjZU9uVXNlIiB5Mj0iMjEuNCIgeDI9IjQzLjgwMDYiIHkxPSIyMS40IiB4MT0iMzcuNzkyNSIgaWQ9InBhaW50NV9saW5lYXJfMzU3NDlfMTEyNzk4Ij4mI3hhOzxzdG9wIHN0b3Atb3BhY2l0eT0iMCIgc3RvcC1jb2xvcj0iI0U1RkFDMSIvPiYjeGE7PHN0b3Agc3RvcC1vcGFjaXR5PSIwLjUyIiBzdG9wLWNvbG9yPSIjRTVGQUMxIiBvZmZzZXQ9IjAuNTYiLz4mI3hhOzxzdG9wIHN0b3AtY29sb3I9IiNFNUZBQzEiIG9mZnNldD0iMSIvPiYjeGE7PC9saW5lYXJHcmFkaWVudD4mI3hhOzxsaW5lYXJHcmFkaWVudCBncmFkaWVudFVuaXRzPSJ1c2VyU3BhY2VPblVzZSIgeTI9IjEyLjAzMzQiIHgyPSIyOC41MzY1IiB5MT0iLTE0LjkwOTkiIHgxPSIxMi45NDEyIiBpZD0icGFpbnQ2X2xpbmVhcl8zNTc0OV8xMTI3OTgiPiYjeGE7PHN0b3Agc3RvcC1jb2xvcj0iI0ZERTEwMCIgb2Zmc2V0PSIwLjE0Ii8+JiN4YTs8c3RvcCBzdG9wLW9wYWNpdHk9IjAiIHN0b3AtY29sb3I9IiNGRkM2MDAiIG9mZnNldD0iMC45OCIvPiYjeGE7PC9saW5lYXJHcmFkaWVudD4mI3hhOzwvZGVmcz4mI3hhOzwvc3ZnPg==" vertex="1" parent="1">
          <mxGeometry x="290" y="259" width="70" height="70" as="geometry" />
        </mxCell>
        <mxCell id="KYXPamdo8oLt4JVjnBWd-24" value="" style="shape=image;verticalLabelPosition=bottom;verticalAlign=top;imageAspect=0;aspect=fixed;image=data:image/svg+xml,PHN2ZyB4bWxuczp4bGluaz0iaHR0cDovL3d3dy53My5vcmcvMTk5OS94bGluayIgeG1sbnM9Imh0dHA6Ly93d3cudzMub3JnLzIwMDAvc3ZnIiB2aWV3Qm94PSIwIDAgNDggNDgiIGhlaWdodD0iNDgiIHdpZHRoPSI0OCIgZGF0YS1uYW1lPSJMYXllciAxIiBpZD0idXVpZC05MmY1YTIzNi00YmY2LTQ1ZWUtODAwMC1iMDdhOTg3MzlmMjUiPiYjeGE7ICA8ZGVmcz4mI3hhOyAgICA8bGluZWFyR3JhZGllbnQgZ3JhZGllbnRVbml0cz0idXNlclNwYWNlT25Vc2UiIGdyYWRpZW50VHJhbnNmb3JtPSJtYXRyaXgoMSwgMCwgMCwgMSwgMCwgMCkiIHkyPSIzLjU5OSIgeDI9IjQzLjYyNSIgeTE9IjQ3LjczMyIgeDE9IjIyLjgwMyIgaWQ9InV1aWQtZmIxMzdkZTYtOGRmNC00MjEwLWIxNTUtOWE3YzMyN2E3N2I4Ij4mI3hhOyAgICAgIDxzdG9wIHN0b3AtY29sb3I9IiNjODdlMGUiIG9mZnNldD0iMCIvPiYjeGE7ICAgICAgPHN0b3Agc3RvcC1jb2xvcj0iI2U2YWQxMCIgb2Zmc2V0PSIxIi8+JiN4YTsgICAgPC9saW5lYXJHcmFkaWVudD4mI3hhOyAgICA8bGluZWFyR3JhZGllbnQgZ3JhZGllbnRVbml0cz0idXNlclNwYWNlT25Vc2UiIGdyYWRpZW50VHJhbnNmb3JtPSJtYXRyaXgoMSwgMCwgMCwgMSwgMCwgMCkiIHkyPSIxMy44MzEiIHgyPSIzMi43MjgiIHkxPSI0Ny42MzciIHgxPSIxNS4yOTYiIGlkPSJ1dWlkLWEzMWM2OTVmLTU4ZTctNDA2MS1hNGRiLTIxNzM1Njk2MzAzZCI+JiN4YTsgICAgICA8c3RvcCBzdG9wLWNvbG9yPSIjZTZhZDEwIiBvZmZzZXQ9IjAiLz4mI3hhOyAgICAgIDxzdG9wIHN0b3AtY29sb3I9IiNmNmQ3NTEiIG9mZnNldD0iMSIvPiYjeGE7ICAgIDwvbGluZWFyR3JhZGllbnQ+JiN4YTsgICAgPGxpbmVhckdyYWRpZW50IGdyYWRpZW50VW5pdHM9InVzZXJTcGFjZU9uVXNlIiBncmFkaWVudFRyYW5zZm9ybT0ibWF0cml4KDEsIDAsIDAsIDEsIDAsIDApIiB5Mj0iMjYuMzc5IiB4Mj0iMTguMzk2IiB5MT0iNDguNjAxIiB4MT0iOS4wMTkiIGlkPSJ1dWlkLTM3OWNmMDI1LTc3ZTItNDA5OC1hNTQ3LTZmNGQyMTI3ODAyMCI+JiN4YTsgICAgICA8c3RvcCBzdG9wLWNvbG9yPSIjZjZkNzUxIiBvZmZzZXQ9IjAiLz4mI3hhOyAgICAgIDxzdG9wIHN0b3AtY29sb3I9IiNmOWU1ODkiIG9mZnNldD0iMSIvPiYjeGE7ICAgIDwvbGluZWFyR3JhZGllbnQ+JiN4YTsgIDwvZGVmcz4mI3hhOyAgPHRleHQgZm9udC13ZWlnaHQ9IjcwMCIgZm9udC1zaXplPSI0OCIgZm9udC1mYW1pbHk9IlNlZ29lVUktU2VtaWJvbGQsICdTZWdvZSBVSSciIGZpbGw9IiNiNGI0YjQiIHRyYW5zZm9ybT0idHJhbnNsYXRlKDAgLTE4LjM0MSkiPjx0c3BhbiB5PSIwIiB4PSIwIj40OHg8L3RzcGFuPjwvdGV4dD4mI3hhOyAgPGc+JiN4YTsgICAgPHBhdGggZmlsbD0idXJsKCN1dWlkLWZiMTM3ZGU2LThkZjQtNDIxMC1iMTU1LTlhN2MzMjdhNzdiOCkiIGQ9Ik00Miw0Ni4wMDNWMS45OTdjLS4wMDItMS4xMDMtLjg5Ni0xLjk5Ny0yLTEuOTk3aC0xMmMtMS4xMDUsMC0yLC44OTUtMiwydjMuMTM2aDBWNDhoMTQuMDAxYzEuMTAzLDAsMS45OTctLjg5NCwxLjk5OS0xLjk5N1oiLz4mI3hhOyAgICA8cGF0aCBmaWxsPSJ1cmwoI3V1aWQtYTMxYzY5NWYtNThlNy00MDYxLWE0ZGItMjE3MzU2OTYzMDNkKSIgZD0iTTMwLDEyaC0xMi4wMDFjLTEuMTAzLDAtMS45OTcsLjg5NC0xLjk5OSwxLjk5OFY0OGgxNlYxNGMwLTEuMTA1LS44OTUtMi0yLTJaIi8+JiN4YTsgICAgPHBhdGggZmlsbD0idXJsKCN1dWlkLTM3OWNmMDI1LTc3ZTItNDA5OC1hNTQ3LTZmNGQyMTI3ODAyMCkiIGQ9Ik0yMCwyNEg4Yy0xLjEwNSwwLTIsLjg5NS0yLDJ2MjBjMCwxLjEwNCwuODk1LDIsMiwyaDE0VjI2YzAtMS4xMDUtLjg5NS0yLTItMloiLz4mI3hhOyAgPC9nPiYjeGE7PC9zdmc+" vertex="1" parent="1">
          <mxGeometry x="770" y="260" width="48" height="48" as="geometry" />
        </mxCell>
        <mxCell id="KYXPamdo8oLt4JVjnBWd-28" style="edgeStyle=orthogonalEdgeStyle;curved=1;rounded=0;orthogonalLoop=1;jettySize=auto;html=1;" edge="1" parent="1" source="KYXPamdo8oLt4JVjnBWd-25" target="KYXPamdo8oLt4JVjnBWd-24">
          <mxGeometry relative="1" as="geometry" />
        </mxCell>
        <mxCell id="KYXPamdo8oLt4JVjnBWd-25" value="" style="shape=image;verticalLabelPosition=bottom;verticalAlign=top;imageAspect=0;aspect=fixed;image=data:image/svg+xml,PHN2ZyB4bWxucz0iaHR0cDovL3d3dy53My5vcmcvMjAwMC9zdmciIGZpbGw9Im5vbmUiIHZpZXdCb3g9IjAgMCA0OCA0OCIgaGVpZ2h0PSI0OCIgd2lkdGg9IjQ4Ij4mI3hhOzxwYXRoIGZpbGw9InVybCgjcGFpbnQwX2xpbmVhcl8zNTc0OV8xMTM1ODkpIiBkPSJNMzguOTk5OSA0Mi43MTE2QzQxLjc1OTkgNDIuNzExNiA0My45OTk5IDQwLjQ3NSA0My45OTk5IDM3LjcxOTJWMTguMjQ4N0M0My45OTk5IDE3LjY0OTYgNDMuNjg5OSAxNy4xMzA0IDQzLjIxOTkgMTYuODQwOUMzOS4yNzk5IDE0LjQwNDUgMjkuNDk5OSA4LjM3MzY5IDI0Ljg1OTkgNS41MDgwM0MyNC42MDk5IDUuMzU4MjYgMjQuMzE5OSA1LjI3ODM4IDI0LjAwOTkgNS4yNzgzOEMyMy42Nzk5IDUuMjc4MzggMjMuMzc5OSA1LjM3ODIzIDIzLjExOTkgNS41Mzc5OUMxOC40Njk5IDguNDEzNjMgOC43Mzk4NyAxNC40MTQ1IDQuNzk5ODcgMTYuODQwOUM0LjMyOTg3IDE3LjEzMDQgNC4wMDk4OSAxNy42NTk2IDQuMDA5ODkgMTguMjU4N1YzNy43MjkyQzQuMDA5ODkgNDAuNDg1IDYuMjQ5ODkgNDIuNzIxNiA5LjAwOTg5IDQyLjcyMTZIMzkuMDA5OUwzOC45OTk5IDQyLjcxMTZaIi8+JiN4YTs8cGF0aCBmaWxsPSJ1cmwoI3BhaW50MV9saW5lYXJfMzU3NDlfMTEzNTg5KSIgZD0iTTQgMjYuNTQ1OVYzNy43MTg5QzQgNDAuNDc0OCA2LjI0IDQyLjcxMTQgOSA0Mi43MTE0SDM5QzQxLjc2IDQyLjcxMTQgNDQgNDAuNDc0OCA0NCAzNy43MTg5VjI2LjU0NTlINFoiLz4mI3hhOzxwYXRoIGZpbGw9InVybCgjcGFpbnQyX2xpbmVhcl8zNTc0OV8xMTM1ODkpIiBkPSJNOSA0Mi43MTE2QzYuMjQgNDIuNzExNiA0IDQwLjQ3NSA0IDM3LjcxOTJWMjYuMDc2OEM0IDI1LjQ2NzcgNC4zMyAyNC45Mzg1IDQuODEgMjQuNjQ5TDE4LjEyIDE2LjQzMTRDMTguMzggMTYuMjcxNyAxOC42OCAxNi4xODE4IDE5IDE2LjE4MThDMTkuMzIgMTYuMTgxOCAxOS42MyAxNi4yNzE3IDE5Ljg4IDE2LjQzMTRMMzMuMTkgMjQuNjQ5QzMzLjY4IDI0LjkzODUgMzQgMjUuNDY3NyAzNCAyNi4wNzY4VjM3LjcxOTJDMzQgNDAuNDc1IDM2LjI0IDQyLjcxMTYgMzkgNDIuNzExNkg5WiIvPiYjeGE7PHBhdGggZmlsbD0idXJsKCNwYWludDNfcmFkaWFsXzM1NzQ5XzExMzU4OSkiIGQ9Ik05IDQyLjcxMTZDNi4yNCA0Mi43MTE2IDQgNDAuNDc1IDQgMzcuNzE5MlYyNi4wNzY4QzQgMjUuNDY3NyA0LjMzIDI0LjkzODUgNC44MSAyNC42NDlMMTguMTIgMTYuNDMxNEMxOC4zOCAxNi4yNzE3IDE4LjY4IDE2LjE4MTggMTkgMTYuMTgxOEMxOS4zMiAxNi4xODE4IDE5LjYzIDE2LjI3MTcgMTkuODggMTYuNDMxNEwzMy4xOSAyNC42NDlDMzMuNjggMjQuOTM4NSAzNCAyNS40Njc3IDM0IDI2LjA3NjhWMzcuNzE5MkMzNCA0MC40NzUgMzYuMjQgNDIuNzExNiAzOSA0Mi43MTE2SDlaIi8+JiN4YTs8cGF0aCBmaWxsPSJ1cmwoI3BhaW50NF9saW5lYXJfMzU3NDlfMTEzNTg5KSIgZD0iTTM0IDM3LjcxODlWMjYuNTQ1OUg0VjM3LjcxODlDNCA0MC40NzQ4IDYuMjQgNDIuNzExNCA5IDQyLjcxMTRIMzlDMzYuMjQgNDIuNzExNCAzNCA0MC40NzQ4IDM0IDM3LjcxODlaIi8+JiN4YTs8cGF0aCBmaWxsPSJ1cmwoI3BhaW50NV9saW5lYXJfMzU3NDlfMTEzNTg5KSIgZD0iTTkgNDIuNzExN0M2LjI0IDQyLjcxMTcgNCA0MC40NzUxIDQgMzcuNzE5M1YzMy45MDUxQzQgMzMuMzA2IDQuMzIwMDEgMzIuNzg2OCA0Ljc5MDAxIDMyLjQ4NzJMMTMuMTIgMjcuMzQ1QzEzLjM4IDI3LjE4NTMgMTMuNjggMjcuMDk1NCAxNCAyNy4wOTU0QzE0LjMyIDI3LjA5NTQgMTQuNjMgMjcuMTg1MyAxNC44OCAyNy4zNDVDMTQuODggMjcuMzQ1IDE5LjQyIDMwLjE1MDggMjMuMiAzMi40NzcyQzIzLjY4IDMyLjc2NjggMjQgMzMuMjk2IDI0IDMzLjg5NTFWMzcuNzE5M0MyNCA0MC40NzUxIDI2LjI0IDQyLjcxMTcgMjkgNDIuNzExN0g5WiIvPiYjeGE7PHBhdGggZmlsbD0idXJsKCNwYWludDZfbGluZWFyXzM1NzQ5XzExMzU4OSkiIGQ9Ik0yNC44MyA0MC40NzQ4QzI0LjMxIDM5LjY4NiAyNCAzOC43NDc1IDI0IDM3LjcyOVYzMy45MDQ4QzI0IDMzLjMwNTcgMjMuNjggMzIuNzc2NSAyMy4yIDMyLjQ4N0MxOS40MiAzMC4xNjA1IDE0Ljg4IDI3LjM1NDcgMTQuODggMjcuMzU0N0MxNC42MiAyNy4xOTUgMTQuMzIgMjcuMTA1MSAxNCAyNy4xMDUxQzEzLjY4IDI3LjEwNTEgMTMuMzcgMjcuMTk1IDEzLjEyIDI3LjM1NDdMNC43OTAwMSAzMi40OTY5QzQuMzIwMDEgMzIuNzg2NSA0IDMzLjMxNTcgNCAzMy45MTQ4VjM3LjcyOUM0IDM4Ljc0NzUgNC4zMDk5OSAzOS42OTYgNC44Mjk5OSA0MC40ODQ4SDI0LjgzVjQwLjQ3NDhaIi8+JiN4YTs8ZGVmcz4mI3hhOzxsaW5lYXJHcmFkaWVudCBncmFkaWVudFVuaXRzPSJ1c2VyU3BhY2VPblVzZSIgeTI9IjUuMjY4NCIgeDI9IjIzLjk5OTkiIHkxPSI0Mi43MTE2IiB4MT0iMjMuOTk5OSIgaWQ9InBhaW50MF9saW5lYXJfMzU3NDlfMTEzNTg5Ij4mI3hhOzxzdG9wIHN0b3AtY29sb3I9IiMxMTRBODUiLz4mI3hhOzxzdG9wIHN0b3AtY29sb3I9IiMwMjhFREIiIG9mZnNldD0iMC42NyIvPiYjeGE7PC9saW5lYXJHcmFkaWVudD4mI3hhOzxsaW5lYXJHcmFkaWVudCBncmFkaWVudFVuaXRzPSJ1c2VyU3BhY2VPblVzZSIgeTI9IjI4LjI2MzMiIHgyPSIyNCIgeTE9IjQ0LjQyODgiIHgxPSIyNCIgaWQ9InBhaW50MV9saW5lYXJfMzU3NDlfMTEzNTg5Ij4mI3hhOzxzdG9wIHN0b3Atb3BhY2l0eT0iMC4yIi8+JiN4YTs8c3RvcCBzdG9wLW9wYWNpdHk9IjAiIG9mZnNldD0iMC41NSIvPiYjeGE7PC9saW5lYXJHcmFkaWVudD4mI3hhOzxsaW5lYXJHcmFkaWVudCBncmFkaWVudFVuaXRzPSJ1c2VyU3BhY2VPblVzZSIgeTI9IjE2LjE4MTgiIHgyPSIyMS41IiB5MT0iNDIuNzExNiIgeDE9IjIxLjUiIGlkPSJwYWludDJfbGluZWFyXzM1NzQ5XzExMzU4OSI+JiN4YTs8c3RvcCBzdG9wLWNvbG9yPSIjMDA5NEU1IiBvZmZzZXQ9IjAuMzEiLz4mI3hhOzxzdG9wIHN0b3AtY29sb3I9IiM0MEQ4RjkiIG9mZnNldD0iMSIvPiYjeGE7PC9saW5lYXJHcmFkaWVudD4mI3hhOzxyYWRpYWxHcmFkaWVudCBncmFkaWVudFRyYW5zZm9ybT0idHJhbnNsYXRlKDE0Ljc4IDM5LjI1NjgpIHNjYWxlKDE0LjY5IDE0LjY2NzgpIiBncmFkaWVudFVuaXRzPSJ1c2VyU3BhY2VPblVzZSIgcj0iMSIgY3k9IjAiIGN4PSIwIiBpZD0icGFpbnQzX3JhZGlhbF8zNTc0OV8xMTM1ODkiPiYjeGE7PHN0b3Agc3RvcC1vcGFjaXR5PSIwLjMiLz4mI3hhOzxzdG9wIHN0b3Atb3BhY2l0eT0iMCIgb2Zmc2V0PSIxIi8+JiN4YTs8L3JhZGlhbEdyYWRpZW50PiYjeGE7PGxpbmVhckdyYWRpZW50IGdyYWRpZW50VW5pdHM9InVzZXJTcGFjZU9uVXNlIiB5Mj0iMjYuNTQ1OSIgeDI9IjIxLjUiIHkxPSI0Mi43MTE0IiB4MT0iMjEuNSIgaWQ9InBhaW50NF9saW5lYXJfMzU3NDlfMTEzNTg5Ij4mI3hhOzxzdG9wIHN0b3Atb3BhY2l0eT0iMC4yIiBvZmZzZXQ9IjAuMDkiLz4mI3hhOzxzdG9wIHN0b3Atb3BhY2l0eT0iMCIgb2Zmc2V0PSIwLjU1Ii8+JiN4YTs8L2xpbmVhckdyYWRpZW50PiYjeGE7PGxpbmVhckdyYWRpZW50IGdyYWRpZW50VW5pdHM9InVzZXJTcGFjZU9uVXNlIiB5Mj0iMjcuMDk1NCIgeDI9IjE2LjUiIHkxPSI0Mi43MjE3IiB4MT0iMTYuNSIgaWQ9InBhaW50NV9saW5lYXJfMzU3NDlfMTEzNTg5Ij4mI3hhOzxzdG9wIHN0b3AtY29sb3I9IiMzQ0M1RUUiLz4mI3hhOzxzdG9wIHN0b3AtY29sb3I9IiM1MEUwRkYiIG9mZnNldD0iMSIvPiYjeGE7PC9saW5lYXJHcmFkaWVudD4mI3hhOzxsaW5lYXJHcmFkaWVudCBncmFkaWVudFVuaXRzPSJ1c2VyU3BhY2VPblVzZSIgeTI9IjI0LjY4ODgiIHgyPSIxNC40MSIgeTE9IjM4LjA2ODUiIHgxPSIxNC40MSIgaWQ9InBhaW50Nl9saW5lYXJfMzU3NDlfMTEzNTg5Ij4mI3hhOzxzdG9wIHN0b3Atb3BhY2l0eT0iMCIgc3RvcC1jb2xvcj0iI0ExRUNGRiIvPiYjeGE7PHN0b3Agc3RvcC1vcGFjaXR5PSIwLjkiIHN0b3AtY29sb3I9IiNBMUVDRkYiIG9mZnNldD0iMC45Ii8+JiN4YTs8L2xpbmVhckdyYWRpZW50PiYjeGE7PC9kZWZzPiYjeGE7PC9zdmc+" vertex="1" parent="1">
          <mxGeometry x="662" y="270" width="48" height="48" as="geometry" />
        </mxCell>
      </root>
    </mxGraphModel>
  </diagram>
</mxfile>
